<svg width="35" height="27" viewBox="0 0 35 27" fill="none" xmlns="http://www.w3.org/2000/svg">
<circle cx="12.5" cy="12.5" r="12.5" fill="#FADAD7"/>
<mask id="mask0_1_56" style="mask-type:alpha" maskUnits="userSpaceOnUse" x="7" y="0" width="28" height="27">
<path d="M21 26.444C18.8833 26.4496 16.7934 25.9974 14.8905 25.1218C14.194 24.8019 13.5268 24.4282 12.8955 24.0045L12.7037 23.8723C10.9674 22.662 9.54794 21.092 8.55412 19.283C7.52616 17.4106 6.99301 15.3311 7.00007 13.222C7.00007 5.91969 13.2681 0 21 0C28.7319 0 34.9999 5.91969 34.9999 13.222C35.0069 15.3301 34.4743 17.4086 33.4473 19.2803C32.4549 21.0883 31.0373 22.6578 29.3033 23.8683C28.6492 24.3205 27.955 24.7187 27.2285 25.0583L27.1165 25.1112C25.2125 25.9914 23.1199 26.4474 21 26.444ZM21 19.833C18.9021 19.8291 16.9788 20.9357 16.0203 22.6982C19.1582 24.1661 22.8418 24.1661 25.9798 22.6982V22.6916C25.02 20.931 23.0966 19.8269 21 19.833ZM21 17.1886C24.0325 17.1923 26.8287 18.7357 28.3205 21.2292L28.3415 21.212L28.3611 21.1962L28.3373 21.216L28.3233 21.2266C31.8639 18.3377 33.1299 13.6746 31.498 9.5332C29.8661 5.39177 25.6803 2.64482 21.0014 2.64482C16.3225 2.64482 12.1367 5.39177 10.5048 9.5332C8.87291 13.6746 10.1389 18.3377 13.6795 21.2266C15.1722 18.7343 17.9681 17.1921 21 17.1886ZM21 15.8664C17.9072 15.8664 15.4001 13.4985 15.4001 10.5776C15.4001 7.65667 17.9072 5.2888 21 5.2888C24.0928 5.2888 26.5999 7.65667 26.5999 10.5776C26.5999 11.9803 26.01 13.3255 24.9598 14.3173C23.9096 15.3092 22.4852 15.8664 21 15.8664ZM21 7.9332C19.4536 7.9332 18.2 9.11714 18.2 10.5776C18.2 12.0381 19.4536 13.222 21 13.222C22.5464 13.222 23.8 12.0381 23.8 10.5776C23.8 9.11714 22.5464 7.9332 21 7.9332Z" fill="#7C7C7C"/>
</mask>
<g mask="url(#mask0_1_56)">
<rect x="5" y="-1" width="31" height="30" fill="#960145"/>
</g>
</svg>
