<svg width="178" height="201" viewBox="0 0 178 201" fill="none" xmlns="http://www.w3.org/2000/svg">
<path d="M177.316 139.266C176.008 141.508 173.969 142.864 171.616 143.646C165.812 145.575 159.851 146.722 153.785 147.4C145 148.443 137.471 152.249 130.412 157.307C129.157 158.193 127.849 159.132 126.437 159.809C122.62 161.739 118.594 162.677 114.254 162.156C111.744 161.843 109.548 160.748 107.404 159.34C107.979 159.079 108.502 158.871 108.973 158.662C111.639 157.515 114.306 156.42 117.025 155.325C118.542 154.7 120.058 154.074 121.627 153.553C128.32 151.154 135.17 149.433 142.177 148.286C148.242 147.296 153.837 145.158 158.753 141.404C161.681 139.11 164.086 136.503 165.55 133.27C167.799 129.464 167.904 124.51 167.694 121.434C167.694 120.496 167.59 119.557 167.381 118.671C166.858 116.481 165.812 114.5 164.452 112.623C162.675 110.12 160.635 107.826 158.753 105.427C158.282 104.802 157.759 104.124 157.498 103.394C156.975 102.195 156.557 100.943 156.191 99.6918C155.511 96.9805 155.511 94.3214 157.184 91.8708C156.609 92.5486 156.034 93.1743 155.668 93.9564C154.256 97.2934 154.413 100.63 155.981 103.863C158.073 108.295 160.531 112.57 162.413 117.107C164.034 121.017 163.668 124.719 161.786 128.369C160.321 131.289 158.021 133.583 155.406 135.512C151.641 138.275 147.563 140.413 143.066 141.665C141.654 142.082 140.242 142.395 138.778 142.76C138.935 142.395 139.144 142.134 139.353 141.925C141.183 140.1 142.595 138.067 143.693 135.877C148.347 127.274 145.889 117.524 145.889 117.524C145.837 117.211 145.733 116.898 145.68 116.637C145.157 114.76 144.321 112.988 143.589 111.163C143.484 110.902 143.223 110.693 143.066 110.433C143.066 110.433 140.556 121.174 137.366 127.118V127.17C136.948 127.9 136.477 128.63 136.007 129.36C135.641 129.829 135.431 130.194 135.275 130.402C134.229 131.914 133.026 133.322 131.876 134.782C128.529 138.849 124.816 142.551 120.372 145.419C117.496 147.296 114.568 149.121 111.273 150.163C109.129 150.841 106.881 151.363 104.685 151.936C100.083 153.083 95.4295 153.188 90.7756 152.718C87.063 152.301 83.6119 150.998 80.2653 149.59C79.2195 149.173 78.226 148.391 77.3371 147.713C76.1867 146.879 75.1409 145.94 74.0428 145.002C68.5523 140.205 65.2581 134.261 64.8397 126.857C64.6306 123.311 64.4214 119.714 64.16 116.168C64.0031 114.395 63.7416 112.623 63.3233 110.902C62.4344 107.252 61.1794 103.654 58.5126 100.839C57.1008 99.379 55.5321 98.1276 53.8588 96.9284C52.9699 96.3027 52.7084 95.5728 52.7607 94.6342C53.0745 91.8708 53.7542 89.2638 55.4275 86.9697C56.1596 85.9268 56.9439 84.884 57.676 83.8412C58.042 83.3198 58.4081 82.7984 58.7218 82.3292C59.297 82.7984 59.7676 83.2677 60.3428 83.6327C65.8333 87.4389 71.8989 89.7331 78.592 90.2545C84.0825 90.6716 89.573 90.7237 94.9588 89.0553C98.6714 87.9082 102.018 86.1354 105.103 83.8412C105.992 83.1634 106.881 82.4335 107.822 81.8078C107.822 81.8078 113.47 78.5751 118.228 77.9494C118.333 77.9494 120.529 77.9494 122.359 78.2101C122.62 78.2623 122.882 78.3144 123.143 78.3665C123.3 78.4187 123.352 78.4187 123.457 78.4187C125.653 78.8358 127.849 79.4093 129.889 80.4521C129.47 80.1393 129.052 79.8265 128.581 79.6179C123.352 76.9066 117.757 76.2288 111.953 77.1152C108.345 77.6366 105.051 79.0444 101.809 80.5564C96.7367 82.8506 91.4554 84.5712 85.8604 84.9883C81.9909 85.3012 78.1737 84.9883 74.4088 84.1541C72.0558 83.6327 69.7027 83.0591 67.4542 82.277C66.0424 81.8078 64.6829 80.9735 63.3756 80.1914C63.0619 79.9829 62.8527 79.8265 62.8004 79.6179C62.8004 79.6179 63.9508 76.1767 68.0294 72.5268C69.1798 71.6405 70.2779 70.7541 71.4283 69.9198C72.0558 69.5027 72.5264 69.1899 72.8401 68.877C75.1409 67.2607 77.5462 65.7486 80.1607 64.4973C83.5073 62.9331 87.0107 61.9424 90.6188 61.421C95.0111 60.7953 99.3512 61.3689 103.587 62.3595C105.574 62.8288 107.561 63.1416 109.548 63.3502C109.548 63.3502 115.613 63.9759 119.744 65.5922C120.372 65.8529 120.999 66.1658 121.679 66.5307C122.568 67.0521 122.725 67.1564 122.516 67C123.196 67.365 123.875 67.8342 124.555 68.3035C126.437 69.5549 128.372 70.7019 130.464 71.5883C131.3 71.9533 132.189 72.214 133.026 72.5268C130.778 71.484 128.738 70.1805 126.751 68.7206C124.555 67.1043 122.307 65.5401 120.11 63.9759C119.117 63.298 118.123 62.6202 117.025 62.151C113.626 60.6389 110.175 59.3875 106.567 58.5533C104.894 58.1883 103.221 57.7191 101.443 57.3019C101.652 57.2498 101.757 57.2498 101.809 57.2498C107.299 56.7805 112.79 56.7805 118.28 57.6148C123.457 58.3969 128.477 59.6482 133.183 62.0467C137.366 64.1323 141.34 66.5829 144.634 69.972C146.726 72.1097 148.922 74.2475 151.014 76.3852C151.537 76.9066 152.06 77.4802 152.53 78.1058C155.511 81.8599 158.23 85.8226 160.478 90.0981C161.576 92.1837 162.57 94.3214 163.616 96.407C163.302 95.2599 162.936 94.165 162.518 93.0179C159.276 84.2584 154.36 76.4895 148.138 69.5549C145.419 66.5307 142.752 63.4023 139.039 61.421C134.699 59.0747 130.307 56.8327 125.496 55.477C121.313 54.33 117.025 54.1735 112.737 54.0693C106.933 53.8607 101.181 54.4342 95.4295 55.2685C87.1153 56.4677 79.1672 58.9704 71.5852 62.5159C71.2714 62.6724 70.9577 62.8288 70.5917 63.0373C70.5394 62.9852 70.4871 62.9331 70.4348 62.8809C71.0623 61.5774 71.5852 60.2218 72.2649 58.9183C73.9905 55.842 76.1867 53.0786 78.6966 50.5759C78.7489 50.5237 85.2852 44.2148 97.4688 42.2335C97.5211 42.2335 104.633 41.7642 110.123 43.2241C110.123 43.2241 112.947 43.9019 117.391 45.2054C117.391 45.2054 130.568 49.7938 133.078 50.3673H133.131C133.392 50.4195 133.654 50.5237 133.915 50.5759C139.144 51.8272 144.216 51.6187 149.079 49.0117C151.484 47.7082 153.994 46.5089 156.452 45.3097C160.531 43.2763 164.766 41.8163 169.211 41.4514C168.792 41.3471 168.27 41.1907 167.694 41.0864C164.034 40.4607 160.478 41.0342 156.923 41.8163C153.681 42.5463 150.752 44.0584 147.667 45.2576C145.994 45.8833 144.268 46.4568 142.543 46.7175C138.83 47.291 135.379 46.3004 131.98 44.8405C129.052 43.5891 126.019 42.5463 123.039 41.3992C122.673 41.2428 122.254 41.1907 121.679 41.0342C121.993 40.9821 122.097 40.93 122.202 40.8778C126.124 40.4086 129.523 38.7401 132.66 36.4459C135.641 34.256 138.621 32.1183 141.706 30.0327C144.164 28.3642 146.726 26.8 149.759 26.4872C151.066 26.3307 152.321 26.0179 153.576 26.2786C153.576 26.2786 154.047 26.3307 154.465 26.3829L155.406 26.5393C155.197 26.435 155.04 26.3307 154.831 26.2786C154.622 26.1743 154.465 26.1222 154.256 26.07C153.838 25.9658 153.471 25.8093 153.053 25.7051C152.269 25.4444 151.432 25.1837 150.648 25.0272C150.229 24.923 149.811 24.8708 149.445 24.7665C145.105 24.1409 141.026 25.1837 137.314 27.4257C134.595 29.0942 132.033 30.9191 129.47 32.7961C125.444 35.7681 120.947 36.863 116.032 36.3416C113.104 36.0288 110.175 35.5595 107.247 35.4031C104.737 35.2467 102.175 35.4552 99.665 35.5074C100.763 33.6303 102.07 31.8054 103.691 30.1891C104.476 29.3549 105.417 28.9899 106.567 28.9899C108.345 28.9899 110.175 28.9377 111.953 28.8335C115.247 28.6249 118.385 27.7385 121.313 26.1743C122.829 25.3922 124.084 24.2973 124.869 22.7852C125.496 21.6381 125.705 20.4389 125.862 19.0833C125.549 19.2397 125.287 19.3961 125.026 19.5004C121.522 21.1167 117.862 22.2117 114.045 22.7331C111.901 23.0459 109.862 23.7237 107.927 24.8187C107.77 24.923 107.613 24.923 107.352 25.0272C108.345 23.0981 108.711 21.1167 109.025 19.1354C109.182 18.1447 109.339 17.1541 109.652 16.2156C109.966 15.277 110.384 14.3907 110.803 13.5043C111.221 12.6179 111.744 11.7315 112.267 10.9494C112.79 10.1673 113.522 9.48949 114.045 8.86381C112.894 9.28093 111.483 9.59377 110.28 10.3237C106.515 12.6179 103.744 15.7984 102.227 19.9696C101.704 21.3774 101.286 22.8374 100.815 24.2451C100.031 26.435 99.1421 28.5728 97.4165 30.2412C95.2726 32.2747 92.7104 33.6303 89.939 34.5689C83.3504 36.7588 78.4875 41.0864 74.3043 46.4047C74.1997 46.5611 74.0951 46.6654 73.9905 46.8218C73.4676 47.4996 73.0493 48.1253 72.5787 48.8552C72.5787 48.8552 72.4741 49.0117 72.2649 49.3245C72.2649 49.3245 72.2649 49.3766 72.2126 49.3766C69.7027 53.3393 52.7084 79.8786 50.3554 82.7984C50.1985 83.007 50.0416 83.1634 49.8848 83.372C49.8848 83.007 49.8848 82.8506 49.8848 82.642C50.0416 77.9494 51.1397 73.4654 53.0222 69.1377C55.2184 64.0802 58.1989 59.4918 61.5455 55.1642C65.1535 50.5759 68.9707 46.0918 72.7355 41.6078C75.6638 38.1144 78.4875 34.621 80.8405 30.7105C82.8798 27.2693 85.1806 24.0887 88.2657 21.4817C89.9913 20.0218 91.8737 18.979 94.2268 18.9268C94.9065 18.9268 95.534 18.979 95.9524 19.5004C95.9524 19.5004 96.0046 19.6047 96.1092 19.7611C96.3184 20.0739 96.5798 20.5432 96.5798 20.7517C96.5798 21.0124 97.155 18.9268 97.2073 18.4576C97.3642 17.6233 97.2596 16.7891 96.789 15.9549C95.534 13.8171 94.2791 13.2436 91.7169 13.765C91.7169 13.4521 91.7169 13.1393 91.7691 12.8265C92.1352 11.523 92.3966 10.1673 92.9195 8.96809C93.9653 6.51751 95.3249 4.27549 96.9982 2.18988L97.0505 2.13774C97.2596 1.87704 97.5211 1.5642 97.7302 1.3035C97.7302 1.3035 97.7302 1.3035 97.7302 1.25136C98.2531 0.625681 98.776 0 98.776 0C97.6779 0.2607 96.1615 1.09494 96.1615 1.09494C96.0046 1.19922 95.8478 1.25136 95.6909 1.35564C93.4947 2.76342 91.6646 4.53619 90.0436 6.56965C88.3703 8.65525 87.0107 10.8973 85.7035 13.2436C84.5008 15.3813 83.0367 17.4148 81.6772 19.5004C80.9974 20.5953 80.3699 21.7424 79.6901 22.7852C76.605 27.3735 72.9447 31.4926 69.4413 35.7681C66.6176 39.2093 63.6371 42.5463 60.1859 45.414C56.9439 48.1253 53.4928 50.6802 50.1985 53.3914C48.7867 54.5385 47.218 55.1642 45.4924 55.3728C45.1787 55.4249 44.8649 55.4249 44.3943 55.477L44.708 54.6949C44.708 54.6949 45.9107 51.3058 46.4336 50.6802C46.9565 50.0545 49.205 49.7416 51.0874 49.6895C52.9699 49.5852 56.1596 48.1253 58.5126 45.5183C60.8134 42.9113 61.65 38.8444 61.65 38.8444C67.7157 38.3751 68.2909 33.2132 68.3432 31.4405C68.4478 29.6677 67.8203 27.9471 66.7222 26.7479C65.6241 25.5486 64.0031 24.193 61.3886 25.2358C58.7741 26.2786 58.9832 29.042 58.9832 29.042C57.3623 26.5914 54.8523 25.3401 54.8523 25.3401C52.4993 24.193 48.3684 24.4016 45.8584 24.6623C43.3485 24.923 43.2962 26.7479 43.2962 26.7479C42.5119 26.8521 41.4661 27.9992 39.8451 30.6062C38.2241 33.2654 36.4985 33.5782 35.871 33.8389C35.2435 34.0996 34.6683 34.4124 34.7206 35.1945C34.7729 35.9767 35.139 36.1331 35.4527 36.4459C35.7664 36.7588 35.2958 36.863 34.9821 37.2802C34.6683 37.6973 35.2958 38.1665 35.2958 38.1665C35.2958 38.1665 34.6161 37.8016 34.1454 37.958C33.7271 38.1144 33.9363 39.2615 33.9363 39.2615C33.2042 39.5743 32.629 41.0864 33.2565 42.442C33.884 43.8498 35.2435 44.4233 36.6031 45.2054C37.9626 45.9875 38.0672 47.1868 37.8058 49.6895C37.7012 50.7844 37.3351 51.7751 36.9168 52.5572C36.76 52.87 36.6031 53.1829 36.3939 53.4436C36.0802 53.9128 35.871 54.2257 35.871 54.2257H35.9233H35.871L34.7206 56.1027C33.0474 58.5012 31.1649 60.7432 28.7596 62.5681C27.766 63.298 26.8248 64.1844 25.9882 65.123C24.8378 66.3743 24.2103 67.8864 24.158 69.607C24.0535 72.579 24.8901 75.3424 26.2496 77.9494C27.2954 79.9307 28.2889 81.9121 29.2302 83.9455C29.8577 85.4054 30.3806 86.9175 30.8512 88.4296C31.3741 90.1502 31.008 91.8187 30.5897 93.5393C30.3283 93.07 30.1191 92.6008 29.9622 92.1315C28.3412 87.6475 26.4588 83.2677 24.2103 79.0444C22.171 75.2381 19.7134 71.7447 16.6805 68.7206C16.4191 68.4599 16.1054 68.3035 15.8439 68.0949L15.5825 68.3035C20.3931 76.1245 22.7985 84.7276 24.4195 93.6957C24.2626 93.4872 24.1057 93.3829 24.0012 93.2265C21.9096 90.3066 19.818 87.3868 17.7263 84.4148C14.6412 80.035 12.5496 75.186 11.6084 69.9198C11.0855 67.1043 10.9286 64.1844 10.5626 61.3689C10.5103 61.1082 10.5103 60.8475 10.458 60.5868C10.4057 60.5868 10.3012 60.5868 10.2489 60.5868C10.1966 60.7432 10.092 60.9517 10.0397 61.1082C9.62138 62.7766 9.15077 64.4973 8.73245 66.2179C7.37291 71.7969 7.9481 77.1673 10.4057 82.3292C10.458 82.4335 10.458 82.5899 10.5103 82.6942C7.00687 82.5899 3.50344 82.4856 0 82.3813C0.784352 82.7984 1.5687 83.007 2.30077 83.4241C5.8042 85.3533 9.30764 87.2303 12.7588 89.2638C18.4061 92.6529 23.3214 96.8763 26.5111 102.768C26.7202 103.133 26.9817 103.498 27.1909 103.863C25.8836 103.498 24.6286 103.029 23.3214 102.82C18.3015 102.09 13.5431 102.872 9.15077 105.375C6.95459 106.626 4.91527 108.086 2.82367 109.546C2.0916 110.016 1.51641 110.693 0.836642 111.267C0.888932 111.319 0.888932 111.371 0.941222 111.423C1.25496 111.319 1.62099 111.267 1.93473 111.111C2.56222 110.902 3.24199 110.589 3.86947 110.381C6.95459 109.494 10.092 108.608 13.334 108.451C17.3603 108.243 21.1252 109.129 24.5241 111.319C26.3019 112.466 27.6615 114.082 28.4981 116.064C28.655 116.481 28.655 116.742 28.2889 117.054C23.8966 120.756 19.818 124.823 16.2099 129.307C14.7981 131.08 13.4386 132.853 13.0725 135.199C12.6542 137.702 12.6542 140.1 14.1706 142.29C15.0073 143.437 16.0008 144.48 16.9943 145.523C18.2492 146.826 19.6611 147.974 20.8115 149.329C23.3737 152.458 25.7267 155.795 27.9229 159.184C28.5504 160.383 39.0607 179.518 40.9432 182.595C40.9432 182.595 40.9432 182.595 40.9432 182.647C41.6229 183.846 42.355 185.045 43.1393 186.192C44.8126 188.695 46.4336 191.25 47.6886 193.961C48.7344 196.203 50.0416 198.237 51.8195 200.009C52.3424 200.531 52.9176 201 53.7019 201C53.9111 200.374 53.8588 200.218 53.4928 199.54C53.0745 198.706 52.6039 197.872 52.3947 196.933C52.081 195.525 51.9241 194.117 51.7672 192.658C51.5581 190.416 51.4012 188.121 51.192 185.879C51.0351 184.107 50.4077 182.49 49.1527 181.187C48.6298 180.665 48.0546 180.353 47.3226 180.3C46.2245 180.248 45.3878 179.727 44.708 178.893C43.8191 177.798 43.2439 176.494 43.0348 175.086C42.6687 172.427 42.355 169.716 42.0935 167.057C41.5706 161.478 40.0542 156.264 37.1783 151.415C34.7206 147.296 31.897 143.385 28.1321 140.361C27.5569 139.892 26.9294 139.475 26.2496 138.953C26.5634 138.588 26.7725 138.223 27.1386 137.963C28.3412 137.024 29.5962 136.033 30.8512 135.147C33.2042 133.479 35.6096 131.862 38.0149 130.246C38.0672 130.507 38.1718 130.872 38.2764 131.237C39.479 135.825 40.6817 140.361 41.3092 145.054C42.0935 150.998 42.9302 156.889 44.5512 162.677C46.8519 170.915 51.4535 177.016 59.9768 179.623C64.6306 181.082 69.1275 183.012 73.1539 185.775C78.0169 189.112 81.0497 193.648 81.3634 199.592C81.4157 199.331 81.468 198.914 81.5203 198.497C81.5726 194.118 80.4222 190.103 78.0691 186.453C75.0363 181.708 71.1146 177.693 66.9313 173.939C64.7874 172.01 62.6436 170.133 60.6042 168.152C57.9374 165.545 55.8981 162.521 55.1138 158.819C55.0615 158.558 55.0615 158.297 55.0092 157.932C55.689 157.984 56.2642 158.037 56.8394 158.141C60.6042 158.975 64.16 160.331 67.4542 162.364C71.5852 164.919 74.9317 168.256 77.5985 172.323C78.3829 173.522 78.9581 174.721 79.3764 176.077C80.3699 179.205 81.3634 182.386 82.4615 185.514C83.455 188.382 84.71 191.093 86.6447 193.492C88.0043 195.16 89.6775 196.62 91.6123 197.611C92.1352 197.872 92.7104 198.028 93.2856 198.184C91.1417 195.212 87.063 182.699 87.5337 180.248C87.6905 180.353 87.8474 180.457 87.952 180.561C90.4096 182.23 92.1875 184.576 93.913 186.922C96.4753 190.416 98.8806 194.013 101.861 197.142C102.75 198.08 103.848 198.602 104.842 199.279C103.534 197.089 100.031 187.652 100.136 186.401C103.796 187.652 107.404 188.851 111.012 190.155C114.045 191.25 116.607 193.179 118.646 195.682C118.699 195.734 118.751 195.838 118.803 195.89V195.942L118.855 195.995L119.012 196.307C119.065 196.307 119.117 196.203 119.065 196.047C116.555 191.875 113.365 188.434 109.129 185.984C105.365 183.794 101.286 182.282 97.2596 180.561C94.5928 179.414 91.8737 178.267 89.7298 176.233C89.4684 175.973 89.2592 175.712 88.9978 175.503C89.2592 175.451 89.4684 175.556 89.6253 175.608C92.1352 176.546 94.7497 177.016 97.4688 176.703C98.0963 176.651 98.7237 176.546 99.3512 176.39C99.3512 176.39 104.476 175.764 106.201 173.887C106.149 173.835 106.149 173.783 106.097 173.731C105.783 173.835 105.417 173.939 105.103 174.096C103.744 174.721 102.332 174.826 100.868 174.513C97.7825 173.783 94.7497 173.001 91.6646 172.323C86.9585 171.332 83.1936 168.83 80.0562 165.284C79.2195 164.346 78.5397 163.303 78.3306 161.947C78.4875 161.947 78.6443 161.895 78.7489 161.895C83.1413 161.791 87.4291 162.312 91.6646 163.459C98.5669 165.388 104.894 168.517 110.907 172.219C116.555 175.712 121.627 179.935 126.856 183.95C126.856 183.95 128.843 185.932 130.307 187.756C130.307 187.756 130.307 187.756 130.307 187.809C130.987 188.695 131.719 189.581 132.503 190.363C134.02 191.875 135.641 193.335 137.262 194.795C137.418 194.9 137.575 195.004 137.68 195.16C137.575 194.9 137.418 194.691 137.209 194.482C133.392 190.676 130.359 186.349 127.797 181.552C125.653 177.433 122.725 173.783 118.751 171.176V171.124C121.679 171.489 124.607 171.802 127.536 172.219C134.804 173.314 141.445 175.816 146.935 180.874C148.399 182.177 150.282 182.751 151.955 183.533C151.118 182.699 150.177 181.865 149.393 180.926C145.994 176.807 142.334 172.896 137.523 170.133C137.941 170.133 138.307 170.133 138.673 170.133C141.863 170.133 144.948 169.612 147.824 168.047C148.818 167.526 149.811 166.953 150.805 166.483C153.105 165.388 155.406 164.867 157.916 165.962C158.544 166.275 159.276 166.431 159.955 166.692C157.393 164.919 154.674 163.407 151.694 162.468C151.223 162.312 150.752 162.208 150.229 162.156C144.582 161.426 139.144 162.312 133.758 164.033C132.085 164.554 130.359 165.075 128.634 165.44C126.908 165.805 125.183 165.44 123.405 165.128C123.509 165.023 123.562 165.023 123.614 164.971C123.771 164.919 123.98 164.867 124.137 164.867C126.856 164.293 129.47 163.407 131.771 161.895C133.601 160.748 135.379 159.549 137.157 158.297C140.137 156.107 143.379 154.491 147.04 153.865C149.288 153.5 151.589 153.135 153.837 152.875C158.23 152.301 162.57 151.623 166.701 149.903C169.002 148.964 171.146 147.765 173.08 146.305C175.59 144.376 176.845 141.665 177.943 138.849C177.996 138.64 177.996 138.432 177.996 138.223C178.048 138.171 177.63 138.693 177.316 139.266Z" fill="#960145"/>
</svg>
